<mxfile host="app.diagrams.net" agent="Mozilla/5.0 (Windows NT 10.0; Win64; x64) AppleWebKit/537.36 (KHTML, like Gecko) Chrome/122.0.0.0 Safari/537.36" version="24.8.6">
  <diagram id="C5RBs43oDa-KdzZeNtuy" name="Page-1">
    <mxGraphModel grid="1" page="1" gridSize="10" guides="1" tooltips="1" connect="1" arrows="1" fold="1" pageScale="1" pageWidth="827" pageHeight="1169" math="0" shadow="0">
      <root>
        <mxCell id="WIyWlLk6GJQsqaUBKTNV-0" />
        <mxCell id="WIyWlLk6GJQsqaUBKTNV-1" parent="WIyWlLk6GJQsqaUBKTNV-0" />
        <mxCell id="d4m4XHCR1yU2aVNYJyMA-2" value="" style="edgeStyle=orthogonalEdgeStyle;rounded=0;orthogonalLoop=1;jettySize=auto;html=1;" edge="1" parent="WIyWlLk6GJQsqaUBKTNV-1" source="d4m4XHCR1yU2aVNYJyMA-0" target="d4m4XHCR1yU2aVNYJyMA-1">
          <mxGeometry relative="1" as="geometry" />
        </mxCell>
        <mxCell id="d4m4XHCR1yU2aVNYJyMA-0" value="Bắt đầu" style="ellipse;whiteSpace=wrap;html=1;" vertex="1" parent="WIyWlLk6GJQsqaUBKTNV-1">
          <mxGeometry x="340" y="80" width="120" height="80" as="geometry" />
        </mxCell>
        <mxCell id="d4m4XHCR1yU2aVNYJyMA-4" value="" style="edgeStyle=orthogonalEdgeStyle;rounded=0;orthogonalLoop=1;jettySize=auto;html=1;" edge="1" parent="WIyWlLk6GJQsqaUBKTNV-1" source="d4m4XHCR1yU2aVNYJyMA-1" target="d4m4XHCR1yU2aVNYJyMA-3">
          <mxGeometry relative="1" as="geometry" />
        </mxCell>
        <mxCell id="d4m4XHCR1yU2aVNYJyMA-1" value="Nhập nember" style="shape=parallelogram;perimeter=parallelogramPerimeter;whiteSpace=wrap;html=1;fixedSize=1;" vertex="1" parent="WIyWlLk6GJQsqaUBKTNV-1">
          <mxGeometry x="340" y="250" width="120" height="60" as="geometry" />
        </mxCell>
        <mxCell id="d4m4XHCR1yU2aVNYJyMA-6" value="" style="edgeStyle=orthogonalEdgeStyle;rounded=0;orthogonalLoop=1;jettySize=auto;html=1;" edge="1" parent="WIyWlLk6GJQsqaUBKTNV-1" source="d4m4XHCR1yU2aVNYJyMA-3" target="d4m4XHCR1yU2aVNYJyMA-5">
          <mxGeometry relative="1" as="geometry" />
        </mxCell>
        <mxCell id="d4m4XHCR1yU2aVNYJyMA-7" value="Đúng" style="edgeLabel;html=1;align=center;verticalAlign=middle;resizable=0;points=[];" connectable="0" vertex="1" parent="d4m4XHCR1yU2aVNYJyMA-6">
          <mxGeometry x="-0.1" y="1" relative="1" as="geometry">
            <mxPoint as="offset" />
          </mxGeometry>
        </mxCell>
        <mxCell id="d4m4XHCR1yU2aVNYJyMA-9" value="" style="edgeStyle=orthogonalEdgeStyle;rounded=0;orthogonalLoop=1;jettySize=auto;html=1;" edge="1" parent="WIyWlLk6GJQsqaUBKTNV-1" source="d4m4XHCR1yU2aVNYJyMA-3" target="d4m4XHCR1yU2aVNYJyMA-8">
          <mxGeometry relative="1" as="geometry" />
        </mxCell>
        <mxCell id="d4m4XHCR1yU2aVNYJyMA-10" value="Sai" style="edgeLabel;html=1;align=center;verticalAlign=middle;resizable=0;points=[];" connectable="0" vertex="1" parent="d4m4XHCR1yU2aVNYJyMA-9">
          <mxGeometry x="-0.2444" y="2" relative="1" as="geometry">
            <mxPoint as="offset" />
          </mxGeometry>
        </mxCell>
        <mxCell id="d4m4XHCR1yU2aVNYJyMA-3" value="If nember / 2 dư 0" style="rhombus;whiteSpace=wrap;html=1;" vertex="1" parent="WIyWlLk6GJQsqaUBKTNV-1">
          <mxGeometry x="290" y="380" width="220" height="80" as="geometry" />
        </mxCell>
        <mxCell id="d4m4XHCR1yU2aVNYJyMA-12" style="edgeStyle=orthogonalEdgeStyle;rounded=0;orthogonalLoop=1;jettySize=auto;html=1;entryX=0.5;entryY=0;entryDx=0;entryDy=0;" edge="1" parent="WIyWlLk6GJQsqaUBKTNV-1" source="d4m4XHCR1yU2aVNYJyMA-5" target="d4m4XHCR1yU2aVNYJyMA-11">
          <mxGeometry relative="1" as="geometry" />
        </mxCell>
        <mxCell id="d4m4XHCR1yU2aVNYJyMA-5" value="Số chẵn" style="shape=parallelogram;perimeter=parallelogramPerimeter;whiteSpace=wrap;html=1;fixedSize=1;" vertex="1" parent="WIyWlLk6GJQsqaUBKTNV-1">
          <mxGeometry x="640" y="390" width="120" height="60" as="geometry" />
        </mxCell>
        <mxCell id="d4m4XHCR1yU2aVNYJyMA-8" value="Số lẻ" style="shape=parallelogram;perimeter=parallelogramPerimeter;whiteSpace=wrap;html=1;fixedSize=1;" vertex="1" parent="WIyWlLk6GJQsqaUBKTNV-1">
          <mxGeometry x="340" y="550" width="120" height="60" as="geometry" />
        </mxCell>
        <mxCell id="d4m4XHCR1yU2aVNYJyMA-11" value="Kết thúc" style="ellipse;whiteSpace=wrap;html=1;" vertex="1" parent="WIyWlLk6GJQsqaUBKTNV-1">
          <mxGeometry x="640" y="610" width="120" height="80" as="geometry" />
        </mxCell>
        <mxCell id="d4m4XHCR1yU2aVNYJyMA-13" style="edgeStyle=orthogonalEdgeStyle;rounded=0;orthogonalLoop=1;jettySize=auto;html=1;entryX=0.025;entryY=0.625;entryDx=0;entryDy=0;entryPerimeter=0;" edge="1" parent="WIyWlLk6GJQsqaUBKTNV-1" source="d4m4XHCR1yU2aVNYJyMA-8" target="d4m4XHCR1yU2aVNYJyMA-11">
          <mxGeometry relative="1" as="geometry">
            <Array as="points">
              <mxPoint x="400" y="660" />
            </Array>
          </mxGeometry>
        </mxCell>
      </root>
    </mxGraphModel>
  </diagram>
</mxfile>
